<svg width="24" height="24" viewBox="0 0 24 24" fill="none" xmlns="http://www.w3.org/2000/svg">
<g clip-path="url(#clip0_2_118)">
<path d="M11.636 0C12.2359 0 12.7557 0.48 12.7557 1.12V3.4C12.7557 4.12 12.5158 4.84 12.1159 5.44C12.5158 6.04 12.7557 6.76 12.7557 7.48V9.08C12.7557 9.68 12.2758 10.2 11.636 10.2C9.99653 10.2 8.55696 9.08 8.11709 7.52C7.67722 7.68 7.27734 8 6.87746 8.44C6.59754 8.8 6.51757 9.32 6.7575 9.76C6.99742 10.2 7.3973 10.48 7.91715 10.48C8.15708 10.48 8.31703 10.64 8.31703 10.88C8.31703 11.12 8.15708 11.28 7.91715 11.28C7.11739 11.28 6.3976 10.84 6.03771 10.12C5.67782 9.4 5.79778 8.56 6.27764 7.92C6.95744 7.2 7.59724 6.76 8.35702 6.6C8.47698 6.56 8.59694 6.56 8.67692 6.64C8.7569 6.72 8.83687 6.8 8.83687 6.92C9.03681 8.36 10.2365 9.4 11.676 9.4C11.836 9.4 11.9959 9.24 11.9959 9.08V7.48C11.9959 6.84 11.756 6.2 11.3561 5.72C11.2362 5.56 11.2362 5.36 11.3561 5.2C11.756 4.72 11.9959 4.08 11.9959 3.44V1.12C11.9959 0.96 11.836 0.8 11.676 0.8C10.0765 0.8 8.79689 2.12 8.79689 3.68C8.79689 4.04 8.39701 4.08 8.23705 4.08C6.23765 4.24 4.51817 5 3.11858 6.4C1.07919 8.4 0.319422 11.28 1.03921 14C1.75899 16.8 3.87836 18.92 6.63753 19.64C6.7575 19.68 6.87746 19.76 6.91745 19.88C6.95744 20 6.95744 20.12 6.87746 20.24C6.0777 21.4 5.31793 21.96 4.63813 22.48L4.51817 22.6C4.31823 22.72 4.35821 22.88 4.3982 22.96C4.43819 23.04 4.51817 23.2 4.71811 23.2C7.35732 23.2 9.83657 22.04 11.5161 20.04C11.596 19.92 11.716 19.88 11.836 19.88L13.7154 19.92C18.474 19.92 22.5528 16.4 23.1926 11.64C23.1926 11.52 23.1526 11.44 23.1126 11.4C23.0726 11.36 22.9926 11.28 22.8727 11.28H14.2752C14.0353 11.28 13.8754 11.12 13.8754 10.88C13.8754 10.64 14.0353 10.48 14.2752 10.48H22.8727C23.1926 10.48 23.5125 10.64 23.7124 10.88C23.9124 11.16 24.0323 11.48 23.9923 11.76C23.3125 16.88 18.9139 20.72 13.7554 20.72H12.0359C10.1965 22.8 7.55726 24 4.75809 24C4.23825 24 3.83837 23.72 3.67842 23.24C3.51846 22.8 3.67842 22.28 4.0783 22L4.23825 21.88C4.79808 21.44 5.35791 21.04 5.95774 20.28C3.15857 19.32 1.07919 17.12 0.319422 14.24C-0.520327 11.2 0.319422 8.04 2.55875 5.8C4.03831 4.32 5.87776 3.48 7.99712 3.28C8.15708 1.44 9.7566 0 11.636 0ZM19.3537 12.76C19.9136 12.76 20.3934 13.24 20.3934 13.8C20.3934 14.36 19.9136 14.8 19.3537 14.84C18.7939 14.84 18.314 14.36 18.314 13.8C18.314 13.24 18.7939 12.76 19.3537 12.76Z" fill="#3A5F56"/>
</g>
<defs>
<clipPath id="clip0_2_118">
<rect width="24" height="24" fill="white"/>
</clipPath>
</defs>
</svg>
