<svg width="24" height="24" viewBox="0 0 24 24" fill="none" xmlns="http://www.w3.org/2000/svg">
<path d="M12 1.5C18.08 1.5 23.24 5 24 9.60112V9.79775C24 9.83708 23.96 9.83708 23.96 9.8764C23.92 9.8764 23.92 9.91573 23.92 9.95506C23.92 9.95506 23.92 9.99438 23.88 9.99438C23.84 9.99438 23.84 10.0337 23.8 10.0337C23.76 10.073 23.76 10.073 23.72 10.073H20.96V21.7135H21.76C22 21.7135 22.16 21.8708 22.16 22.1067C22.16 22.3427 22 22.5 21.76 22.5H14.96C14.72 22.5 14.56 22.3427 14.56 22.1067C14.56 21.8708 14.72 21.7135 14.96 21.7135H15.92V10.073H8.2V21.6742H9.08C9.32 21.6742 9.48 21.8315 9.48 22.0674C9.48 22.3034 9.32 22.4607 9.08 22.4607H2.28C2.04 22.4607 1.88 22.3034 1.88 22.0674C1.88 21.8315 2.04 21.6742 2.28 21.6742H3.16V10.0337H0.2C0.16 10.0337 0.12 9.99438 0.12 9.99438L0.10963 9.98419L0.08 9.95506C0.08 9.91573 0.04 9.91573 0.04 9.8764C0 9.83708 0 9.83708 0 9.79775V9.60112C0.76 5 5.92 1.5 12 1.5ZM7.4 10.073H4V21.7135H7.4V10.073ZM20.12 10.073H16.72V21.7135H20.12V10.073ZM12 2.28652C6.52 2.28652 1.84 5.27528 0.88 9.28652H23.12C22.16 5.27528 17.48 2.28652 12 2.28652ZM14.32 6.10112C14.56 6.10112 14.72 6.25843 14.72 6.49438C14.72 6.73034 14.56 6.88764 14.32 6.88764H9.72C9.48 6.88764 9.32 6.73034 9.32 6.49438C9.32 6.25843 9.48 6.10112 9.72 6.10112H14.32Z" fill="#3A5F56"/>
</svg>
