<svg width="48" height="48" viewBox="0 0 48 48" fill="none" xmlns="http://www.w3.org/2000/svg">
<path d="M0 24C0 10.7452 10.7452 0 24 0C37.2548 0 48 10.7452 48 24C48 37.2548 37.2548 48 24 48C10.7452 48 0 37.2548 0 24Z" fill="#F4F3F0" fill-opacity="0.08"/>
<path d="M26.0299 17.48L27.3697 15.2C27.4509 15.08 27.4509 14.92 27.3697 14.8L25.8675 12.2C25.7863 12.08 25.6645 12 25.5021 12H22.4573C22.2949 12 22.1731 12.08 22.0919 12.2L20.6303 14.8C20.5491 14.92 20.5491 15.08 20.6303 15.2L21.9701 17.48C17.7073 18.4 14.5 22.16 14.5 26.64C14.5 31.8 18.7628 36 24 36C29.2372 36 33.5 31.8 33.5 26.64C33.5 22.16 30.2927 18.4 26.0299 17.48ZM22.7415 12.8H25.2991L26.5577 15L25.2991 17.2H22.7415L21.4829 15L22.7415 12.8ZM24 35.2C19.2094 35.2 15.312 31.36 15.312 26.64C15.312 21.92 19.2094 18.08 24 18.08C28.7906 18.08 32.688 21.92 32.688 26.64C32.688 31.36 28.7906 35.2 24 35.2Z" fill="#3A5F56"/>
</svg>
