<svg width="24" height="24" viewBox="0 0 24 24" fill="none" xmlns="http://www.w3.org/2000/svg">
<path d="M19.8776 15.04L15.9198 8.2C15.9198 8.16 15.9198 8.16 15.9198 8.12C15.9198 8.08 15.9606 8.08 16.0014 8.08H16.7358C17.0623 8.08 17.3887 7.88 17.5519 7.6C17.7151 7.32 17.6743 6.96 17.4703 6.68L12.6557 0.36C12.4924 0.12 12.2476 0 11.9212 0C11.5948 0 11.35 0.12 11.1868 0.36L6.45376 6.68C6.24975 6.96 6.20895 7.32 6.37216 7.6C6.53537 7.88 6.82098 8.08 7.1882 8.08H8.37145C8.41226 8.08 8.41226 8.08 8.45306 8.12C8.45306 8.16 8.45306 8.16 8.45306 8.2L4.12805 15C3.96485 15.28 3.96485 15.6 4.08725 15.88C4.25046 16.16 4.53607 16.32 4.86249 16.32H11.554V23.6C11.554 23.84 11.7172 24 11.962 24C12.2068 24 12.37 23.84 12.37 23.6V16.36H19.1024C19.4288 16.36 19.7144 16.2 19.8776 15.92C20.0408 15.64 20.0408 15.32 19.8776 15.04ZM19.1432 15.52C19.1432 15.56 19.1024 15.56 19.0616 15.56H4.82169C4.78088 15.56 4.78089 15.56 4.74008 15.52C4.74008 15.48 4.74008 15.48 4.74008 15.44L9.06509 8.64C9.22829 8.36 9.22829 8.04 9.10589 7.76C8.94268 7.48 8.65707 7.32 8.33065 7.32H7.1474C7.10659 7.32 7.10659 7.32 7.06579 7.28C7.06579 7.24 7.06579 7.24 7.06579 7.2L11.8804 0.84C11.8804 0.8 11.9212 0.8 11.9212 0.8C11.9212 0.8 11.962 0.8 12.0028 0.84L16.7766 7.16C16.7766 7.2 16.8175 7.2 16.7766 7.24C16.7766 7.28 16.7358 7.28 16.695 7.28H15.9606C15.6342 7.28 15.3486 7.44 15.1854 7.72C15.0222 8 15.0222 8.32 15.1854 8.6L19.1432 15.44C19.184 15.44 19.184 15.48 19.1432 15.52Z" fill="#3A5F56"/>
</svg>
