<svg width="24" height="24" viewBox="0 0 24 24" fill="none" xmlns="http://www.w3.org/2000/svg">
<path d="M5.08 11.2118C6.4 11.2118 7.68 11.7635 8.6 12.67C9.04 13.1034 9.4 13.6158 9.64 14.1675C10.24 13.734 11 13.4581 11.84 13.4581C12.8 13.4581 13.64 13.7734 14.28 14.3251C15.04 12.4729 16.88 11.2118 18.96 11.2118C20.32 11.2118 21.56 11.7241 22.52 12.67C23.48 13.6158 24 14.8374 24 16.1773V17.9901C24 19.0936 23.08 20 21.96 20H2.04C0.92 20 0 19.0936 0 17.9901V16.335C0 14.9557 0.56 13.6158 1.56 12.6305C2.52 11.7241 3.76 11.1724 5.08 11.2118ZM11.84 14.2069C10.2 14.2069 8.88 15.5074 8.88 17.1232V19.2118H14.8V17.1232C14.8 15.5468 13.48 14.2069 11.84 14.2069ZM5.12 11.9606H5.08C4 11.9606 2.96 12.3941 2.16 13.1823C1.28 14.0493 0.8 15.1921 0.8 16.335V17.9901C0.8 18.6601 1.36 19.2118 2.04 19.2118V19.1724H8.12V17.0837C8.12 16.1773 8.48 15.3103 9.04 14.6798C8.84 14.1281 8.52 13.6158 8.08 13.1823C7.28 12.3941 6.24 11.9606 5.12 11.9606ZM18.92 12C17.04 12 15.4 13.1823 14.88 14.9557C15.32 15.5468 15.6 16.2956 15.6 17.1232V19.2118H21.96C22.64 19.2118 23.2 18.6601 23.2 17.9901H23.16V16.1773C23.16 15.0739 22.72 14.0099 21.92 13.2217C21.12 12.4335 20.04 12 18.92 12ZM11.88 7.9803C13.04 7.9803 13.96 8.8867 13.96 10.0296C13.96 11.1724 13.04 12.0788 11.88 12.0788C10.72 12.0788 9.8 11.1724 9.8 10.0296C9.8 8.8867 10.72 7.9803 11.88 7.9803ZM11.88 8.80788C11.16 8.80788 10.6 9.35961 10.6 10.069C10.6 10.7783 11.16 11.33 11.88 11.33C12.6 11.33 13.16 10.7783 13.16 10.069C13.16 9.35961 12.6 8.80788 11.88 8.80788ZM5.04 4C6.6 4 7.88 5.26108 7.88 6.79803C7.88 8.33498 6.6 9.59606 5.04 9.59606C3.48 9.59606 2.2 8.33498 2.2 6.79803C2.2 5.26108 3.48 4 5.04 4ZM18.96 4C20.52 4 21.8 5.26108 21.8 6.79803C21.8 8.33498 20.52 9.59606 18.96 9.59606C17.4 9.59606 16.12 8.33498 16.12 6.79803C16.12 5.26108 17.4 4 18.96 4ZM5.04 4.78818C3.92 4.78818 3 5.69458 3 6.79803C3 7.90148 3.92 8.80788 5.04 8.80788C6.16 8.80788 7.08 7.90148 7.08 6.79803C7.08 5.69458 6.16 4.78818 5.04 4.78818ZM18.96 4.78818C17.84 4.78818 16.92 5.69458 16.92 6.79803C16.92 7.90148 17.84 8.80788 18.96 8.80788C20.08 8.80788 21 7.90148 21 6.79803C21 5.69458 20.08 4.78818 18.96 4.78818Z" fill="#3A5F56"/>
</svg>
