<svg width="24" height="24" viewBox="0 0 24 24" fill="none" xmlns="http://www.w3.org/2000/svg">
<g clip-path="url(#clip0_2_132)">
<path d="M22.5933 9.97851C22.9931 9.97851 23.3529 10.1355 23.6327 10.4103C23.9125 10.685 24.0325 11.0383 23.9925 11.4308C23.7526 14.0607 22.5533 16.5336 20.6344 18.4178C19.9148 19.1636 19.0753 19.7523 18.1958 20.2626V20.6551C18.1958 21.6757 17.3563 22.5 16.3169 22.5H7.68176C6.64235 22.5 5.80283 21.6757 5.80283 20.6551V20.2626C2.52469 18.4178 0.365918 15.1206 0.00612227 11.4308C-0.033855 11.0776 0.126054 10.685 0.365918 10.4103C0.645759 10.1355 1.00555 9.97851 1.40533 9.97851H22.5933ZM22.2335 14.7673H1.72515C2.6846 16.8084 4.32367 18.5355 6.40249 19.6738C6.52242 19.7523 6.60238 19.8701 6.60238 20.0271V20.6159C6.60238 21.2047 7.08211 21.6757 7.68176 21.6757H16.3169C16.9165 21.6757 17.3962 21.2047 17.3962 20.6159V20.0271C17.3962 19.8701 17.4762 19.7523 17.5961 19.6738C18.5156 19.2028 19.3551 18.5748 20.0747 17.8682C20.9942 16.9654 21.7138 15.9056 22.2335 14.7673ZM22.6333 10.7243H1.40533C1.24542 10.7243 1.08551 10.8028 0.965578 10.9206C0.845646 11.0383 0.805668 11.1953 0.805668 11.3523C0.885623 12.2551 1.08551 13.1579 1.40533 13.9822H22.5933C22.9131 13.1187 23.113 12.2551 23.2329 11.3523C23.2329 11.1953 23.193 11.0383 23.073 10.9206C22.9531 10.8028 22.7932 10.7243 22.6333 10.7243ZM6.08267 1.5C6.32254 1.5 6.48245 1.65701 6.48245 1.89252V6.56355C6.48245 6.79907 6.32254 6.95607 6.08267 6.95607C5.84281 6.95607 5.6829 6.75981 5.6829 6.56355V1.89252C5.6829 1.65701 5.84281 1.5 6.08267 1.5ZM17.916 1.5C18.1558 1.5 18.3157 1.65701 18.3157 1.89252V6.56355C18.3157 6.79907 18.1558 6.95607 17.916 6.95607C17.7161 6.95607 17.5162 6.75981 17.5162 6.56355V1.89252C17.5162 1.65701 17.6761 1.5 17.916 1.5ZM11.9993 1.5C12.2392 1.5 12.3991 1.65701 12.3991 1.89252V6.56355C12.3991 6.79907 12.2392 6.95607 11.9993 6.95607C11.7594 6.95607 11.5995 6.75981 11.5995 6.56355V1.89252C11.5995 1.65701 11.7594 1.5 11.9993 1.5Z" fill="#3A5F56"/>
</g>
<defs>
<clipPath id="clip0_2_132">
<rect width="24" height="24" fill="white"/>
</clipPath>
</defs>
</svg>
