<svg width="48" height="48" viewBox="0 0 48 48" fill="none" xmlns="http://www.w3.org/2000/svg">
<path d="M0 24C0 10.7452 10.7452 0 24 0C37.2548 0 48 10.7452 48 24C48 37.2548 37.2548 48 24 48C10.7452 48 0 37.2548 0 24Z" fill="#3A5F56" fill-opacity="0.1"/>
<path d="M31.8776 27.04L27.9198 20.2C27.9198 20.16 27.9198 20.16 27.9198 20.12C27.9198 20.08 27.9606 20.08 28.0014 20.08H28.7358C29.0623 20.08 29.3887 19.88 29.5519 19.6C29.7151 19.32 29.6743 18.96 29.4703 18.68L24.6557 12.36C24.4924 12.12 24.2476 12 23.9212 12C23.5948 12 23.35 12.12 23.1868 12.36L18.4538 18.68C18.2498 18.96 18.209 19.32 18.3722 19.6C18.5354 19.88 18.821 20.08 19.1882 20.08H20.3715C20.4123 20.08 20.4123 20.08 20.4531 20.12C20.4531 20.16 20.4531 20.16 20.4531 20.2L16.1281 27C15.9648 27.28 15.9648 27.6 16.0873 27.88C16.2505 28.16 16.5361 28.32 16.8625 28.32H23.554V35.6C23.554 35.84 23.7172 36 23.962 36C24.2068 36 24.37 35.84 24.37 35.6V28.36H31.1024C31.4288 28.36 31.7144 28.2 31.8776 27.92C32.0408 27.64 32.0408 27.32 31.8776 27.04ZM31.1432 27.52C31.1432 27.56 31.1024 27.56 31.0616 27.56H16.8217C16.7809 27.56 16.7809 27.56 16.7401 27.52C16.7401 27.48 16.7401 27.48 16.7401 27.44L21.0651 20.64C21.2283 20.36 21.2283 20.04 21.1059 19.76C20.9427 19.48 20.6571 19.32 20.3307 19.32H19.1474C19.1066 19.32 19.1066 19.32 19.0658 19.28C19.0658 19.24 19.0658 19.24 19.0658 19.2L23.8804 12.84C23.8804 12.8 23.9212 12.8 23.9212 12.8C23.9212 12.8 23.962 12.8 24.0028 12.84L28.7766 19.16C28.7766 19.2 28.8175 19.2 28.7766 19.24C28.7766 19.28 28.7358 19.28 28.695 19.28H27.9606C27.6342 19.28 27.3486 19.44 27.1854 19.72C27.0222 20 27.0222 20.32 27.1854 20.6L31.1432 27.44C31.184 27.44 31.184 27.48 31.1432 27.52Z" fill="#3A5F56"/>
</svg>
