<svg width="48" height="48" viewBox="0 0 48 48" fill="none" xmlns="http://www.w3.org/2000/svg">
<path d="M0 24C0 10.7452 10.7452 0 24 0C37.2548 0 48 10.7452 48 24C48 37.2548 37.2548 48 24 48C10.7452 48 0 37.2548 0 24Z" fill="#3A5F56" fill-opacity="0.1"/>
<g clip-path="url(#clip0_2_74)">
<path d="M35.7598 12.9816L35.6399 12.6219C35.5999 12.502 35.48 12.3821 35.36 12.3422L35.0002 12.2223C34.9202 12.1823 33.2809 11.7427 30.682 12.2223C29.2026 12.502 27.7232 13.0615 26.2838 13.8608C25.4842 14.3003 24.7245 14.7799 23.9248 15.3793C23.9248 15.3793 23.9248 15.3793 23.8848 15.3793C22.9252 16.0987 21.9257 16.9379 21.006 17.857C17.3676 21.4936 15.1685 25.0902 13.929 27.448C12.5696 30.0456 12.1298 31.8039 12.0898 31.8839L12.0098 32.5632C11.9698 32.763 12.0498 32.9628 12.2897 33.0428L14.3288 33.7221L15.0086 35.7602C15.0485 35.8801 15.2085 36 15.3684 36C15.4084 36 15.4484 36 15.4884 36L16.0881 35.8402C16.1681 35.8402 17.9273 35.3606 20.5262 34.0019C22.4055 33.0428 25.0044 31.4842 27.8032 29.0865C28.5629 28.4471 29.3225 27.7278 30.1222 26.9685C31.8015 25.29 33.1609 23.5317 34.1205 21.7334C34.9202 20.2947 35.44 18.7762 35.7598 17.3375C36.2796 14.7 35.7998 13.0615 35.7598 12.9816ZM21.6458 18.4564C22.4055 17.6972 23.2051 17.0178 23.9648 16.3784L27.0835 28.6069C25.0843 30.3253 23.1651 31.5642 21.5658 32.4833L18.807 21.6135C19.6466 20.5745 20.5662 19.5354 21.6458 18.4564ZM20.1664 33.2825C17.6474 34.6013 15.9682 35.0409 15.8882 35.0409L15.6083 35.1208L15.0086 33.2825C14.9686 33.1627 14.8886 33.0827 14.7687 33.0428L12.8894 32.4034L12.9694 32.1636C12.9694 32.0837 13.4492 30.4052 14.7287 27.8876C15.4884 26.449 16.6079 24.5308 18.1672 22.4527L20.8461 32.9229C20.6062 33.0428 20.3663 33.1627 20.1664 33.2825ZM35.0002 17.1377C34.7203 18.5364 34.2005 19.9351 33.4408 21.2938C32.5212 23.0122 31.2018 24.7306 29.5624 26.369C28.9627 26.9685 28.3629 27.5279 27.8032 28.0475L24.6845 15.8988C25.3642 15.4193 26.0439 14.9797 26.7236 14.62C28.1231 13.8608 29.5225 13.3412 30.8819 13.0615C32.6811 12.7018 33.9206 12.8617 34.4804 12.9816L32.7211 14.7399C32.5612 14.8998 32.5612 15.1396 32.7211 15.2994C32.8011 15.3793 32.921 15.4193 33.001 15.4193C33.081 15.4193 33.2009 15.3793 33.2809 15.2994L35.0401 13.5411C35.2001 14.0606 35.32 15.3394 35.0002 17.1377Z" fill="#3A5F56"/>
</g>
<defs>
<clipPath id="clip0_2_74">
<rect width="24" height="24" fill="white" transform="translate(12 12)"/>
</clipPath>
</defs>
</svg>
