<svg width="24" height="24" viewBox="0 0 24 24" fill="none" xmlns="http://www.w3.org/2000/svg">
<g clip-path="url(#clip0_2_76)">
<path d="M23.7598 0.981583L23.6399 0.621921C23.5999 0.502033 23.48 0.382145 23.36 0.342183L23.0002 0.222295C22.9202 0.182333 21.2809 -0.257255 18.682 0.222295C17.2026 0.502033 15.7232 1.06151 14.2838 1.86076C13.4842 2.30035 12.7245 2.7799 11.9248 3.37933C11.9248 3.37933 11.9248 3.37933 11.8848 3.37933C10.9252 4.09866 9.92565 4.93787 9.00604 5.85701C5.36757 9.4936 3.16849 13.0902 1.92901 15.448C0.569583 18.0456 0.129768 19.8039 0.0897844 19.8839L0.009818 20.5632C-0.0301652 20.763 0.0498012 20.9628 0.2897 21.0428L2.32884 21.7221L3.00856 23.7602C3.04854 23.8801 3.20847 24 3.36841 24C3.40839 24 3.44837 24 3.48836 24L4.0881 23.8402C4.16807 23.8402 5.92733 23.3606 8.52624 22.0019C10.4055 21.0428 13.0044 19.4842 15.8032 17.0865C16.5629 16.4471 17.3225 15.7278 18.1222 14.9685C19.8015 13.29 21.1609 11.5317 22.1205 9.73338C22.9202 8.29473 23.44 6.77615 23.7598 5.3375C24.2796 2.69997 23.7998 1.06151 23.7598 0.981583ZM9.64577 6.45645C10.4055 5.69716 11.2051 5.0178 11.9648 4.3784L15.0835 16.6069C13.0843 18.3253 11.1651 19.5642 9.5658 20.4833L6.80696 9.61349C7.64661 8.57446 8.56622 7.53544 9.64577 6.45645ZM8.16639 21.2825C5.64745 22.6013 3.96816 23.0409 3.88819 23.0409L3.60831 23.1208L3.00856 21.2825C2.96858 21.1627 2.88861 21.0827 2.76866 21.0428L0.889449 20.4034L0.969415 20.1636C0.969415 20.0837 1.44921 18.4052 2.72868 15.8876C3.48836 14.449 4.60789 12.5308 6.16723 10.4527L8.84611 20.9229C8.60621 21.0428 8.36631 21.1627 8.16639 21.2825ZM23.0002 5.13769C22.7203 6.53638 22.2005 7.93506 21.4408 9.29379C20.5212 11.0122 19.2018 12.7306 17.5624 14.369C16.9627 14.9685 16.3629 15.5279 15.8032 16.0475L12.6845 3.89885C13.3642 3.4193 14.0439 2.97971 14.7236 2.62005C16.1231 1.86076 17.5225 1.34125 18.8819 1.06151C20.6811 0.701846 21.9206 0.861696 22.4804 0.981583L20.7211 2.73993C20.5612 2.89978 20.5612 3.13956 20.7211 3.29941C20.8011 3.37933 20.921 3.4193 21.001 3.4193C21.081 3.4193 21.2009 3.37933 21.2809 3.29941L23.0401 1.54106C23.2001 2.06057 23.32 3.33937 23.0002 5.13769Z" fill="#3A5F56"/>
</g>
<defs>
<clipPath id="clip0_2_76">
<rect width="24" height="24" fill="white"/>
</clipPath>
</defs>
</svg>
