<svg width="113" height="30" viewBox="0 0 113 30" fill="none" xmlns="http://www.w3.org/2000/svg">
<g clip-path="url(#clip0_2_6)">
<path fill-rule="evenodd" clip-rule="evenodd" d="M102.647 9.36932C106.546 9.36932 110.325 11.6933 112.055 15.5897C112.685 17.0078 113 18.4619 113 19.88C113 23.8157 110.794 27.479 107.095 29.1301C105.795 29.7243 104.459 30 103.119 30C99.1803 30 95.4021 27.676 93.6721 23.7796C93.078 22.3616 92.7629 20.9041 92.7629 19.4467C92.7629 15.5503 94.9294 11.8509 98.6682 10.1965C99.9714 9.64505 101.307 9.36932 102.647 9.36932ZM8.46578 0C8.77763 0 8.97458 0.118171 9.17482 0.354513L19.2097 20.6668L29.2511 0.354513C29.4481 0.118171 29.645 0 29.9601 0H37.3591C37.7563 0 37.95 0.196952 37.95 0.590855V1.77256C37.95 2.16647 37.7563 2.36014 37.3591 2.36014C36.4958 2.36014 35.6686 2.5177 34.9201 2.95099V23.4241C34.9201 25.5512 35.9049 27.1629 37.8318 27.1629C38.2257 27.1629 38.4259 27.3631 38.4259 27.757V28.9355C38.4259 29.3294 38.2257 29.5263 37.8318 29.5263H28.1088C27.7542 29.5263 27.5179 29.3294 27.5179 28.9355V27.757C27.5179 27.3631 27.7542 27.1629 28.1088 27.1629C30.0389 27.1629 30.9843 25.5512 30.9843 23.4241V8.50175L21.6913 27.3238C21.5731 27.5962 21.3401 27.757 21.0217 27.757H17.3977C17.0858 27.757 16.8495 27.5962 16.6919 27.3238L7.43834 8.50175V23.4241C7.43834 25.5512 8.38372 27.1629 10.3139 27.1629C10.6684 27.1629 10.9047 27.3631 10.9047 27.757V28.9355C10.9047 29.3294 10.6684 29.5263 10.3139 29.5263H0.587583C0.196955 29.5263 0 29.3294 0 28.9355V27.757C0 27.3631 0.196955 27.1629 0.587583 27.1629C2.51774 27.1629 3.50252 25.5512 3.50252 23.4241V2.95099C2.75409 2.5177 1.92688 2.36014 1.06356 2.36014C0.669647 2.36014 0.472692 2.16647 0.472692 1.77256V0.590855C0.472692 0.196952 0.669647 0 1.06356 0H8.46578ZM48.1302 8.62254C48.209 8.62254 48.209 8.62254 48.2451 8.66193V23.4267C48.2451 25.5505 49.1938 27.1623 51.1207 27.1623H51.2421C51.636 27.1623 51.8297 27.3625 51.8297 27.7564V28.9348C51.8297 29.3287 51.554 29.5257 51.1601 29.5257H40.0223C39.6283 29.5257 39.3526 29.3287 39.3526 28.9348V27.7564C39.3526 27.3625 39.5463 27.1623 39.9402 27.1623H40.0223C41.9491 27.1623 42.8945 25.5505 42.8551 23.4267V19.2514C42.8551 19.1708 42.8548 19.0894 42.854 19.0074L42.8523 18.8841C42.8243 17.1928 42.5498 15.2995 40.5311 15.0793C40.1371 15.0399 40.0584 14.8396 40.0584 14.5639V13.2279C40.0584 12.9128 40.2553 12.834 40.6492 12.7159C44.7853 11.3372 46.8303 9.80097 47.8939 8.69804C47.9333 8.66193 48.0121 8.62254 48.0515 8.62254H48.1302ZM62.0717 8.62123C62.1144 8.62123 62.1538 8.62123 62.1538 8.66062L61.2084 13.975C62.6232 10.9453 65.3411 9.33026 68.1379 9.33026C70.5769 9.33026 72.5825 10.7089 72.5825 13.3842C72.5825 14.5659 72.507 15.5113 71.5616 15.9052L67.8622 17.402C67.744 17.4775 67.6258 17.4775 67.5077 17.4775C67.2713 17.4775 67.1531 17.3232 67.1531 17.1263C67.1531 17.0081 67.1925 16.8899 67.2319 16.7717C67.5438 16.0233 67.5864 15.3537 67.5864 14.8022C67.5864 13.3842 66.7986 12.7539 65.7383 12.7539C63.9264 12.7539 62.3474 14.7267 61.796 16.1809V23.4254C61.796 25.5492 62.7413 27.1642 64.6715 27.1642H64.7536C65.1442 27.1642 65.3411 27.3612 65.3411 27.7551V28.9368C65.3411 29.3307 65.1442 29.5244 64.7536 29.5244H53.2973C52.9002 29.5244 52.7032 29.3307 52.7032 28.9368V27.7551C52.7032 27.3612 52.9002 27.1642 53.2973 27.1642H53.3728C55.303 27.1642 56.2484 25.5492 56.2484 23.4254L56.2483 18.3926L56.2478 18.2532L56.2466 18.1136C56.2247 16.1362 55.9705 14.162 53.9243 13.9356C53.5304 13.8995 53.4516 13.6993 53.4516 13.4236V12.0876C53.4516 11.7692 53.6486 11.6543 54.0425 11.5755C57.7846 10.9846 60.7751 9.44843 61.796 8.70001C61.878 8.66062 61.9141 8.62123 61.9962 8.62123H62.0717ZM82.0429 8.62123C82.0856 8.62123 82.125 8.62123 82.125 8.66062L81.1796 13.975C82.5944 10.9453 85.3124 9.33026 88.1091 9.33026C90.5481 9.33026 92.5538 10.7089 92.5538 13.3842C92.5538 14.5659 92.4783 15.5113 91.5329 15.9052L87.8334 17.402C87.7152 17.4775 87.5971 17.4775 87.4789 17.4775C87.2425 17.4775 87.1244 17.3232 87.1244 17.1263C87.1244 17.0081 87.1638 16.8899 87.2032 16.7717C87.515 16.0233 87.5577 15.3537 87.5577 14.8022C87.5577 13.3842 86.7699 12.7539 85.7096 12.7539C83.8976 12.7539 82.3187 14.7267 81.7672 16.1809V23.4254C81.7672 25.5492 82.7126 27.1642 84.6427 27.1642H84.7248C85.1154 27.1642 85.3124 27.3612 85.3124 27.7551V28.9368C85.3124 29.3307 85.1154 29.5244 84.7248 29.5244H73.2686C72.8714 29.5244 72.6744 29.3307 72.6744 28.9368V27.7551C72.6744 27.3612 72.8714 27.1642 73.2686 27.1642H73.3441C75.2742 27.1642 76.2196 25.5492 76.2196 23.4254V18.4622L76.219 18.2532C76.2069 16.2301 75.9898 14.1673 73.8956 13.9356C73.5016 13.8995 73.4229 13.6993 73.4229 13.4236V12.0876C73.4229 11.7692 73.6198 11.6543 74.0137 11.5755C77.7559 10.9846 80.7463 9.44843 81.7672 8.70001C81.8493 8.66062 81.8854 8.62123 81.9674 8.62123H82.0429ZM101.426 12.5205C100.914 12.5205 100.362 12.6387 99.85 12.8718C98.1168 13.6235 97.4504 15.1958 97.4504 17.0078C97.4504 18.4619 97.8837 20.0802 98.5533 21.6131C99.8139 24.4099 101.895 26.8488 104.341 26.8488C104.853 26.8488 105.361 26.7306 105.913 26.4975C107.607 25.7458 108.276 24.1735 108.276 22.3616C108.276 20.9041 107.843 19.253 107.173 17.7562C105.952 14.9595 103.825 12.5205 101.426 12.5205ZM45.4943 0.393247C46.2001 0.393247 46.7515 0.668979 47.4606 1.378C48.1696 2.08703 48.4454 2.6385 48.4454 3.34424C48.4454 4.05326 48.1696 4.6474 47.4606 5.31376C46.7515 6.02278 46.2001 6.29851 45.4943 6.29851C44.7853 6.29851 44.1911 6.02278 43.5248 5.31376C42.8157 4.6474 42.54 4.05326 42.54 3.34424C42.54 2.6385 42.8157 2.08703 43.5248 1.378C44.1911 0.668979 44.7853 0.393247 45.4943 0.393247Z" fill="#3A5F56"/>
</g>
<defs>
<clipPath id="clip0_2_6">
<rect width="113" height="30" fill="white"/>
</clipPath>
</defs>
</svg>
