<svg width="160" height="19" viewBox="0 0 160 19" fill="none" xmlns="http://www.w3.org/2000/svg">
<path fill-rule="evenodd" clip-rule="evenodd" d="M159.17 19C158.958 19 158.746 18.9198 158.584 18.7602L141.576 1.97606L124.569 18.7602C124.258 19.0671 123.708 19.0671 123.397 18.7602L106.39 1.97606L89.383 18.7602C89.072 19.0671 88.5213 19.0671 88.2103 18.7602L71.2034 1.97606L54.1965 18.7602C53.8855 19.0671 53.3348 19.0671 53.0238 18.7602L36.0161 1.97606L19.0092 18.7602C18.6982 19.0671 18.1475 19.0671 17.8365 18.7602L0.24321 1.39738C-0.0810701 1.07735 -0.0810701 0.559239 0.24321 0.240025C0.567491 -0.0800082 1.09165 -0.0800082 1.41593 0.240025L18.4228 17.0241L35.4297 0.240025C35.754 -0.0800082 36.279 -0.0800082 36.6024 0.240025L53.6101 17.0241L70.617 0.240025C70.928 -0.0669122 71.4787 -0.0669122 71.7897 0.240025L88.7966 17.0241L105.804 0.240025C106.115 -0.0669122 106.665 -0.0669122 106.976 0.240025L123.983 17.0241L140.99 0.240025C141.301 -0.0669122 141.852 -0.0669122 142.163 0.240025L159.757 17.6028C160.081 17.9229 160.081 18.4401 159.757 18.7602C159.595 18.9198 159.383 19 159.17 19Z" fill="black"/>
</svg>
